<svg xmlns="http://www.w3.org/2000/svg" xmlns:xlink="http://www.w3.org/1999/xlink" width="335.771" height="331.979" viewBox="0 0 335.771 331.979">
  <defs>
    <filter id="Tracé_54" x="0" y="0" width="335.771" height="331.979" filterUnits="userSpaceOnUse">
      <feOffset input="SourceAlpha"/>
      <feGaussianBlur stdDeviation="10" result="blur"/>
      <feFlood flood-color="#50b6b2"/>
      <feComposite operator="in" in2="blur"/>
      <feComposite in="SourceGraphic"/>
    </filter>
  </defs>
  <g id="noun_Christmas_Flake_2143466" data-name="noun_Christmas Flake_2143466" transform="translate(189.012 30.355) rotate(51)">
    <g transform="matrix(0.63, -0.78, 0.78, 0.63, -142.54, 127.79)" filter="url(#Tracé_54)">
      <g id="Tracé_54-2" data-name="Tracé 54" transform="translate(189.01 30.36) rotate(51)" fill="none">
        <path d="M178.062,146.52l-9.271-5.24,8.465-5.24a4.081,4.081,0,0,0-4.434-6.853l-11.69,7.659-8.062-4.434L169.6,121.125a4.081,4.081,0,0,0-4.434-6.853L145.41,127.978l-8.062-4.837,8.465-5.24a4.081,4.081,0,1,0-4.434-6.853l-11.69,7.659-5.24-2.822V88.07l4.837-2.822,11.69,7.659a4.081,4.081,0,0,0,4.434-6.853l-8.465-5.24,8.062-4.837,19.752,13.706a4.081,4.081,0,0,0,4.434-6.853L152.666,71.543l8.062-4.434,11.69,7.659a4.081,4.081,0,0,0,4.434-6.853l-8.062-5.643,9.271-5.24a4.15,4.15,0,0,0-4.031-7.256l-9.271,5.643-.4-10.078a3.835,3.835,0,1,0-7.659.4l.806,14.109-8.062,4.434-1.612-20.155a3.849,3.849,0,0,0-4.434-3.628,3.641,3.641,0,0,0-3.628,4.434l2.016,23.783-8.062,4.837-1.209-10.078a3.835,3.835,0,0,0-7.659.4l.806,14.109-5.24,2.822L96.232,66.706v-5.24l12.5-6.45c2.016-1.209,2.822-3.628,1.612-5.24-1.209-2.016-3.628-2.822-5.24-1.612l-8.868,4.031V42.923L118,32.442a4,4,0,0,0,2.016-5.24,4.635,4.635,0,0,0-5.643-2.016l-18.14,8.868V24.783l12.5-6.45c2.016-1.209,2.822-3.628,1.612-5.24-1.209-2.016-3.628-2.822-5.24-1.612l-8.868,4.031V5.031a4.031,4.031,0,0,0-8.062,0V15.512L79.3,11.078a3.558,3.558,0,0,0-5.24,1.612,4.463,4.463,0,0,0,1.612,5.643l12.5,6.45v9.271L70.03,25.186a3.97,3.97,0,0,0-3.225,7.256L88.573,42.923v9.271L79.7,47.76a3.558,3.558,0,0,0-5.24,1.612,3.558,3.558,0,0,0,1.612,5.24L88.17,61.466v5.24L63.983,80.814l-4.837-2.822.806-14.109a3.722,3.722,0,0,0-3.628-4.031,3.977,3.977,0,0,0-4.031,3.628l-.806,10.078-8.062-4.837,2.016-23.783A4.385,4.385,0,0,0,41.813,40.5a4.385,4.385,0,0,0-4.434,3.628L35.766,64.287,27.7,59.853l.806-14.109a3.722,3.722,0,0,0-3.628-4.031,3.977,3.977,0,0,0-4.031,3.628L19.642,55.419l-9.271-5.24A4.15,4.15,0,1,0,6.34,57.434l9.271,4.837-8.465,5.24a3.965,3.965,0,0,0-1.209,5.643,3.965,3.965,0,0,0,5.643,1.209l11.69-7.659,8.062,4.434L14.8,82.427a4.081,4.081,0,1,0,4.434,6.853L38.991,75.574l8.062,4.837-8.465,5.24A4.081,4.081,0,1,0,43.022,92.5l11.69-7.659,4.837,2.822v27.814L54.712,118.3l-11.69-7.659a4.081,4.081,0,0,0-4.434,6.853l8.465,5.24-8.062,4.837L19.239,113.869a4.081,4.081,0,1,0-4.434,6.853l16.527,11.287-8.062,4.434-11.69-7.256A3.965,3.965,0,0,0,5.937,130.4a3.965,3.965,0,0,0,1.209,5.643l8.465,5.24L6.34,146.52a4.463,4.463,0,0,0-1.612,5.643,4.463,4.463,0,0,0,5.643,1.612l9.271-5.643.4,10.078a3.486,3.486,0,0,0,4.031,3.628,3.486,3.486,0,0,0,3.628-4.031L26.9,143.7l8.062-4.434,1.612,20.155a3.977,3.977,0,0,0,4.031,3.628,4.143,4.143,0,0,0,4.031-4.434L42.619,134.83l8.062-4.837.4,10.078a3.486,3.486,0,0,0,4.031,3.628,3.486,3.486,0,0,0,3.628-4.031l-.806-14.109,4.837-2.822L86.96,136.846v5.24l-12.5,6.45c-2.016,1.209-2.822,3.628-1.612,5.24,1.209,2.016,3.628,2.822,5.24,1.612l8.868-4.434v9.271L65.193,170.707a3.97,3.97,0,0,0,3.225,7.256l18.14-8.868v9.271l-12.5,6.45c-2.016,1.209-2.822,3.628-1.612,5.24a3.64,3.64,0,0,0,5.24,1.612l8.868-4.434v11.287a4.031,4.031,0,0,0,8.062,0V188.04l8.868,4.434c2.016.806,4.434.4,5.24-1.612a3.558,3.558,0,0,0-1.612-5.24l-10.884-6.853V169.5l18.14,8.868a3.97,3.97,0,0,0,3.225-7.256L96.232,160.629v-9.271l8.868,4.434a3.877,3.877,0,0,0,3.628-6.853l-12.5-6.853v-5.24l24.186-14.109,4.837,2.822-.806,14.109c-.4,5.24,7.659,5.643,8.062.4l.4-10.078,8.062,4.837-2.016,23.783a4.051,4.051,0,1,0,8.062.806l1.612-20.155L156.7,143.7l-.806,14.109a3.722,3.722,0,0,0,3.628,4.031,3.977,3.977,0,0,0,4.031-3.628l.4-10.078,9.271,5.24a4.079,4.079,0,0,0,5.643-1.612A3.252,3.252,0,0,0,178.062,146.52Zm-61.675-30.636L92.2,129.993,68.014,115.884V88.07L92.2,73.962,116.387,88.07Z" stroke="none"/>
        <path d="M 90.58828735351562 202.5517272949219 C 93.00689697265625 202.5517272949219 94.61930847167969 200.9393463134766 94.61930847167969 198.5207061767578 L 94.61930847167969 188.0400390625 L 103.4875869750977 192.4741516113281 C 105.5031356811523 193.2803802490234 107.9217376708984 192.8772888183594 108.7279205322266 190.8617248535156 C 109.9372253417969 188.8462371826172 109.1310348510742 186.4276275634766 107.1155090332031 185.6213989257812 L 96.23172760009766 178.7686157226562 L 96.23172760009766 169.4972534179688 L 114.3713989257812 178.3655395507812 C 116.3869018554688 179.1717987060547 118.8055114746094 178.3655395507812 119.6117324829102 176.3500366210938 C 120.4179534912109 174.3345031738281 119.6117324829102 171.9158935546875 117.5961990356445 171.1096801757812 L 96.23172760009766 160.6289825439453 L 96.23172760009766 151.3575897216797 L 105.1000061035156 155.7917327880859 C 107.1155090332031 157.0010070800781 109.5341339111328 156.19482421875 110.3403396606445 154.1793212890625 C 111.549674987793 152.1637878417969 110.7434539794922 149.7451782226562 108.7279205322266 148.9389495849609 L 96.23172760009766 142.0862274169922 L 96.23172760009766 136.8459014892578 L 120.4179534912109 122.7372589111328 L 125.2552032470703 125.5589828491211 L 124.4489822387695 139.6675872802734 C 124.0458679199219 144.907958984375 132.1079406738281 145.31103515625 132.5110626220703 140.0707092285156 L 132.9141387939453 129.9931182861328 L 140.9761962890625 134.8303680419922 L 138.9607086181641 158.6134796142578 C 138.9607086181641 161.0320892333984 140.5731201171875 162.6445159912109 142.588623046875 163.0476226806641 C 145.0072631835938 163.0476226806641 146.6196746826172 161.4351806640625 147.0227508544922 159.419677734375 L 148.6351776123047 139.2645111083984 L 156.6972503662109 143.6986236572266 L 155.8910369873047 157.8072662353516 C 155.8910369873047 160.2258758544922 157.5034790039062 161.8382873535156 159.5189819335938 161.8382873535156 C 161.5345001220703 161.8382873535156 163.5500335693359 160.2258758544922 163.5500335693359 158.2103424072266 L 163.953125 148.1327667236328 L 173.2244720458984 153.3731231689453 C 175.2400360107422 154.5824127197266 177.6586303710938 153.7761993408203 178.8679504394531 151.7606811523438 C 180.4803619384766 150.1482849121094 180.0772552490234 147.7296752929688 178.0617218017578 146.5203399658203 L 168.7903747558594 141.2800140380859 L 177.2555389404297 136.0396728515625 C 179.2710418701172 134.8303680419922 179.6741485595703 132.4117279052734 178.46484375 130.3962097167969 C 177.2555389404297 128.3807067871094 174.8368835449219 127.9776000976562 172.8213958740234 129.1869049072266 L 161.1313629150391 136.8459014892578 L 153.0693054199219 132.4117279052734 L 169.5965270996094 121.1248397827148 C 171.612060546875 119.9155349731445 172.0151519775391 117.4969253540039 170.8058471679688 115.4813995361328 C 169.5965270996094 113.4659118652344 167.1779327392578 113.0627593994141 165.1623992919922 114.2720947265625 L 145.4103088378906 127.9776229858398 L 137.3482360839844 123.1403732299805 L 145.8134002685547 117.9000396728516 C 147.8289184570312 116.6907348632812 148.2320404052734 114.2720947265625 147.0227355957031 112.2565689086914 C 145.8133850097656 110.2410583496094 143.394775390625 109.8379821777344 141.3792572021484 111.0472564697266 L 129.6892547607422 118.7062301635742 L 124.4489822387695 115.8844833374023 L 124.4489822387695 88.07037353515625 L 129.2862243652344 85.24861907958984 L 140.9762268066406 92.9075927734375 C 142.9917755126953 94.11690521240234 145.4103851318359 93.71382904052734 146.6196746826172 91.69828796386719 C 147.8289794921875 89.68276214599609 147.4258880615234 87.26415252685547 145.4103698730469 86.05484008789062 L 136.9452056884766 80.81450653076172 L 145.0072784423828 75.97725677490234 L 164.7593383789062 89.68276214599609 C 166.7748718261719 90.89208984375 169.1934661865234 90.48896789550781 170.4027862548828 88.47345733642578 C 171.6120910644531 86.45792388916016 171.208984375 84.03931427001953 169.1934814453125 82.83000946044922 L 152.6662292480469 71.54312133789062 L 160.7282867431641 67.10898590087891 L 172.4182891845703 74.76792907714844 C 174.4338226318359 75.97722625732422 176.8524322509766 75.57415008544922 178.0617523193359 73.55862426757812 C 179.2710571289062 71.54312133789062 178.8679809570312 69.12448120117188 176.8524475097656 67.91517639160156 L 168.7903747558594 62.27173233032227 L 178.0617523193359 57.03139877319336 C 180.0772857666016 55.82206726074219 180.4803619384766 53.4034538269043 179.6741790771484 51.38795471191406 C 178.4648590087891 49.37241744995117 176.0462341308594 48.96932601928711 174.0307312011719 49.77553939819336 L 164.7593383789062 55.41898345947266 L 164.3562316894531 45.34140014648438 C 164.3562469482422 42.92275619506836 162.3406677246094 41.31035232543945 160.3251953125 41.71345520019531 C 157.9065551757812 41.71345520019531 156.2941741943359 43.72898101806641 156.6972503662109 45.74448394775391 L 157.5034790039062 59.85312271118164 L 149.4413909912109 64.28726196289062 L 147.8289794921875 44.13206481933594 C 147.8289794921875 42.11656188964844 145.8134002685547 40.10103988647461 143.3948364257812 40.504150390625 C 140.9762268066406 40.504150390625 139.3638153076172 42.51967620849609 139.7668914794922 44.93828964233398 L 141.7824249267578 68.72139739990234 L 133.7203674316406 73.55862426757812 L 132.5110626220703 63.48103713989258 C 132.5110626220703 61.06242370605469 130.4955139160156 59.44999694824219 128.4800109863281 59.85312271118164 C 126.061393737793 59.85312271118164 124.4489822387695 61.86862182617188 124.8520584106445 63.88414764404297 L 125.6582870483398 77.99275970458984 L 120.4179534912109 80.81448364257812 L 96.23172760009766 66.70587158203125 L 96.23172760009766 61.46553802490234 L 108.7279205322266 55.01587295532227 C 110.7434539794922 53.80656433105469 111.549674987793 51.3879280090332 110.3403396606445 49.77550888061523 C 109.1310424804688 47.76001739501953 106.7124252319336 46.95379638671875 105.1000061035156 48.16309356689453 L 96.23172760009766 52.19414901733398 L 96.23172760009766 42.92276000976562 L 117.9993362426758 32.44206619262695 C 120.0148391723633 31.63587188720703 120.8210372924805 29.21723175048828 120.0148391723633 27.20173263549805 C 118.8055038452148 25.18620491027832 116.3868713378906 24.38000869750977 114.3713989257812 25.18620491027832 L 96.23172760009766 34.05448150634766 L 96.23172760009766 24.78312110900879 L 108.7279205322266 18.33345413208008 C 110.7434539794922 17.12414932250977 111.549674987793 14.70553779602051 110.3403396606445 13.09309387207031 C 109.1310424804688 11.07759475708008 106.7124252319336 10.2713737487793 105.1000061035156 11.48070430755615 L 96.23172760009766 15.51173210144043 L 96.23172760009766 5.0310378074646 C 96.23172760009766 2.6124267578125 94.61930847167969 1.000010132789612 92.20069885253906 1.000010132789612 C 89.78205871582031 1.000010132789612 88.16964721679688 2.6124267578125 88.16964721679688 5.0310378074646 L 88.16964721679688 15.51173210144043 L 79.30136871337891 11.07759380340576 C 77.28587341308594 9.868287086486816 74.86722564697266 10.67448329925537 74.06103515625 12.69001007080078 C 73.25483703613281 14.70553779602051 73.65792083740234 17.12414932250977 75.67345428466797 18.33345413208008 L 88.16964721679688 24.78312110900879 L 88.16964721679688 34.05448150634766 L 70.03000640869141 25.18620491027832 C 68.01445770263672 24.38000679016113 65.59586334228516 25.18620300292969 64.78964233398438 27.20173263549805 C 63.98345184326172 29.21726036071777 64.78964233398438 31.63587188720703 66.80517578125 32.44206619262695 L 88.57275390625 42.92276000976562 L 88.57275390625 52.19414901733398 L 79.70447540283203 47.760009765625 C 77.68897247314453 46.55069732666016 75.27033233642578 47.35690307617188 74.46414184570312 49.3724250793457 C 73.25483703613281 51.3879280090332 74.06103515625 53.80656433105469 76.07656097412109 54.61275863647461 L 88.16964721679688 61.46551132202148 L 88.16964721679688 66.70587158203125 L 63.98345184326172 80.81448364257812 L 59.14620208740234 77.99275970458984 L 59.95242309570312 63.88414764404297 C 59.95242309570312 61.46551132202148 58.34000778198242 59.85309219360352 56.32447814941406 59.85309219360352 C 54.30897903442383 59.85309219360352 52.29344940185547 61.46551132202148 52.29344940185547 63.48103713989258 L 51.48722839355469 73.55862426757812 L 43.42517471313477 68.72137451171875 L 45.44070053100586 44.93828964233398 C 45.44070053100586 42.51964950561523 43.82828521728516 40.90723419189453 41.8127555847168 40.504150390625 C 39.39414596557617 40.504150390625 37.78173065185547 42.1165657043457 37.37861633300781 44.13206481933594 L 35.76620101928711 64.2872314453125 L 27.70414543151855 59.85309219360352 L 28.51033973693848 45.74448394775391 C 28.51033973693848 43.32587051391602 26.89795112609863 41.71345520019531 24.88242340087891 41.71345520019531 C 22.86689567565918 41.71345520019531 20.85139465332031 43.32587051391602 20.85139465332031 45.34136962890625 L 19.64206123352051 55.41898345947266 L 10.37067317962646 50.17861938476562 C 8.355173110961914 48.96931076049805 5.936562061309814 49.77550888061523 4.72722864151001 51.79103851318359 C 3.517923355102539 53.80656433105469 4.324145317077637 56.22517776489258 6.339645385742188 57.43448257446289 L 15.61103439331055 62.27173233032227 L 7.145867824554443 67.51206207275391 C 5.130340099334717 68.72137451171875 4.72722864151001 71.14000701904297 5.936562061309814 73.15554046630859 C 7.145868301391602 75.17102813720703 9.564479827880859 75.57415771484375 11.58000659942627 74.36484527587891 L 23.27000617980957 66.70587158203125 L 31.33206176757812 71.14000701904297 L 14.80484008789062 82.42690277099609 C 12.7893123626709 83.63620758056641 12.38620090484619 86.05484008789062 13.59550666809082 88.07034301757812 C 14.80484104156494 90.08588409423828 17.22345352172852 90.48896789550781 19.23895072937012 89.27964782714844 L 38.99103546142578 75.57415008544922 L 47.0530891418457 80.41139984130859 L 38.58792495727539 85.6517333984375 C 36.57242202758789 86.86103820800781 36.1693115234375 89.27967834472656 37.37861633300781 91.29517364501953 C 38.58792495727539 93.31069946289062 41.00656890869141 93.71379089355469 43.02206039428711 92.50448608398438 L 54.71206283569336 84.84551239013672 L 59.54931259155273 87.66725921630859 L 59.54931259155273 115.4813995361328 L 54.71206283569336 118.3031234741211 L 43.02206039428711 110.6441497802734 C 41.00656127929688 109.4348449707031 38.58792114257812 109.8379592895508 37.37861633300781 111.8534545898438 C 36.1693115234375 113.8689804077148 36.57242202758789 116.2875900268555 38.58792495727539 117.4969024658203 L 47.0530891418457 122.7372589111328 L 38.99103546142578 127.5744857788086 L 19.23897933959961 113.8689804077148 C 17.22344589233398 112.65966796875 14.80483913421631 113.0627517700195 13.59550666809082 115.0782852172852 C 12.38620090484619 117.0938186645508 12.7893123626709 119.5124282836914 14.80484008789062 120.7217330932617 L 31.33206176757812 132.0086517333984 L 23.27000617980957 136.4427642822266 L 11.58000659942627 129.1869049072266 C 9.564480781555176 127.9776077270508 7.145868301391602 128.3807067871094 5.936562061309814 130.3962097167969 C 4.72722864151001 132.4117279052734 5.130340099334717 134.8303375244141 7.145867824554443 136.0396728515625 L 15.61103439331055 141.2800140380859 L 6.339645385742188 146.5203399658203 C 4.324145317077637 147.7296447753906 3.921034336090088 150.1482849121094 4.72722864151001 152.163818359375 C 5.936563014984131 154.1793212890625 8.355175971984863 154.5824127197266 10.37067317962646 153.7762298583984 L 19.64206123352051 148.1327667236328 L 20.04517364501953 158.2103729248047 C 20.0451717376709 160.6289825439453 22.06072807312012 162.2412414550781 24.07620048522949 161.8383178710938 C 26.49484062194824 161.8383178710938 28.10725593566895 159.8227844238281 27.70414543151855 157.8072662353516 L 26.89795112609863 143.6986541748047 L 34.96000671386719 139.2645111083984 L 36.57242202758789 159.419677734375 C 36.57242202758789 161.4352111816406 38.58792495727539 163.0476226806641 40.60345077514648 163.0476226806641 C 43.02206039428711 163.0476226806641 44.63447952270508 161.0321197509766 44.63447952270508 158.6135101318359 L 42.61898040771484 134.8303680419922 L 50.68103408813477 129.9931182861328 L 51.08414459228516 140.0707397460938 C 51.08414459228516 142.4893341064453 53.09966278076172 144.1016693115234 55.11517333984375 143.6986541748047 C 57.53378295898438 143.6986541748047 59.14620208740234 141.6831512451172 58.74309158325195 139.6676177978516 L 57.93689727783203 125.5590133666992 L 62.77414703369141 122.7372894287109 L 86.96034240722656 136.8459014892578 L 86.96034240722656 142.0862274169922 L 74.46414184570312 148.5358734130859 C 72.44861602783203 149.7451782226562 71.64239501953125 152.163818359375 72.85173034667969 153.7761993408203 C 74.06104278564453 155.791748046875 76.47963714599609 156.5979766845703 78.09206390380859 155.3886566162109 L 86.96034240722656 150.9545135498047 L 86.96034240722656 160.2258758544922 L 65.19275665283203 170.7065582275391 C 63.1772575378418 171.5127868652344 62.37103271484375 173.9313659667969 63.1772575378418 175.9468994140625 C 63.98345184326172 177.9624328613281 66.402099609375 178.7686004638672 68.41758728027344 177.9624328613281 L 86.55722808837891 169.0941467285156 L 86.55722808837891 178.3655395507812 L 74.06103515625 184.8151702880859 C 72.04550933837891 186.0244750976562 71.23928070068359 188.443115234375 72.44861602783203 190.0555419921875 C 73.25482177734375 192.071044921875 76.07655334472656 192.8772735595703 77.68894958496094 191.6679534912109 L 86.55722808837891 187.2338104248047 L 86.55722808837891 198.5207061767578 C 86.55722808837891 200.9393463134766 88.16964721679688 202.5517272949219 90.58828735351562 202.5517272949219 M 92.20069885253906 73.96173095703125 L 116.3868942260742 88.07037353515625 L 116.3868942260742 115.8844833374023 L 92.20069885253906 129.9931182861328 L 68.01448059082031 115.8844833374023 L 68.01448059082031 88.07037353515625 L 92.20069885253906 73.96173095703125 M 90.58828735351562 205.5517272949219 C 86.51419830322266 205.5517272949219 83.55722808837891 202.5947570800781 83.55722808837891 198.5207061767578 L 83.55722808837891 192.0879058837891 L 79.22758483886719 194.2527313232422 C 78.25935363769531 194.8971405029297 77.10610198974609 195.2361450195312 75.87181091308594 195.2361450195312 C 73.26895904541016 195.2361450195312 70.8875732421875 193.7620391845703 69.82127380371094 191.5303344726562 C 68.98215484619141 190.2400054931641 68.69046020507812 188.6841430664062 68.99970245361328 187.1054840087891 C 69.38792419433594 185.1235656738281 70.67014312744141 183.3511199951172 72.51756286621094 182.2427062988281 L 72.59983825683594 182.1933135986328 L 72.68511962890625 182.1493225097656 L 83.55722808837891 176.5379180908203 L 83.55722808837891 173.9001312255859 L 69.63514709472656 180.7065124511719 L 69.53170013427734 180.7478637695312 C 68.66325378417969 181.0952301025391 67.74739837646484 181.2713775634766 66.80956268310547 181.2713775634766 C 63.93397903442383 181.2713775634766 61.41486740112305 179.6187286376953 60.39181137084961 177.0610656738281 C 59.71878433227539 175.3785095214844 59.69036865234375 173.5229034423828 60.31184005737305 171.8361206054688 C 60.96900939941406 170.0523986816406 62.26562881469727 168.6820220947266 63.9700927734375 167.9656372070312 L 83.96034240722656 158.3406982421875 L 83.96034240722656 155.8086090087891 L 79.63312530517578 157.9722137451172 C 78.66893768310547 158.6174621582031 77.54383087158203 158.9568481445312 76.35936737060547 158.9568481445312 C 73.99984741210938 158.9568481445312 71.71199035644531 157.6143951416016 70.35533142089844 155.4439239501953 C 69.41620635986328 154.1173858642578 69.07799530029297 152.4843597412109 69.40280914306641 150.8262023925781 C 69.79103088378906 148.8442535400391 71.07322692871094 147.0718383789062 72.92066955566406 145.9633941650391 L 73.00295257568359 145.9140167236328 L 83.96034240722656 140.2586059570312 L 83.96034240722656 138.5690002441406 L 62.77414321899414 126.2103958129883 L 61.03691482543945 127.2237777709961 L 61.72814178466797 139.3204498291016 C 62.00745391845703 141.0749969482422 61.51842498779297 142.8656311035156 60.36856079101562 144.2682647705078 C 59.16092300415039 145.7413635253906 57.36334991455078 146.6152648925781 55.40174865722656 146.6929779052734 C 55.10089492797852 146.7377624511719 54.79653167724609 146.7603759765625 54.4933967590332 146.7603759765625 C 52.80733871459961 146.7603759765625 51.15494918823242 146.0504608154297 49.95989608764648 144.8126220703125 C 48.76552200317383 143.5754852294922 48.10098648071289 141.9181365966797 48.08446502685547 140.1389007568359 L 47.88566207885742 135.1689300537109 L 45.76618576049805 136.4406127929688 L 47.63447952270508 158.4866180419922 L 47.63447952270508 158.6135101318359 C 47.63447952270508 160.5380096435547 46.9771728515625 162.3490600585938 45.78367233276367 163.7130584716797 C 44.46636962890625 165.2185363769531 42.62667465209961 166.0476226806641 40.60345077514648 166.0476226806641 C 38.90695190429688 166.0476226806641 37.18067169189453 165.3947906494141 35.86731338500977 164.2565307617188 C 34.4467887878418 163.0254058837891 33.61634063720703 161.3208160400391 33.57411575317383 159.5606384277344 L 32.33962249755859 144.1295318603516 L 30.00096321105957 145.4157867431641 L 30.6891975402832 157.4600830078125 C 30.96850776672363 159.2146301269531 30.47947883605957 161.0052795410156 29.32961845397949 162.4078979492188 C 28.12197685241699 163.8809967041016 26.32438850402832 164.7549285888672 24.36278533935547 164.8326416015625 C 24.06194114685059 164.8774261474609 23.75759315490723 164.9000396728516 23.4544792175293 164.9000396728516 C 21.76845169067383 164.9000396728516 20.11603355407715 164.1901245117188 18.92097854614258 162.9522857666016 C 17.72654914855957 161.7151184082031 17.06201362609863 160.0577697753906 17.04549217224121 158.2785491943359 L 16.84816551208496 153.3454437255859 L 11.71695137023926 156.4688110351562 L 11.48481178283691 156.5616760253906 C 10.4830904006958 156.9623413085938 9.440534591674805 157.1655120849609 8.386173248291016 157.1655120849609 C 7.168062210083008 157.1655120849609 5.977117538452148 156.8810119628906 4.942062377929688 156.3427886962891 C 3.795312166213989 155.7464752197266 2.831478834152222 154.8351440429688 2.154756546020508 153.7073364257812 L 2.031062126159668 153.5011749267578 L 1.941784381866455 153.2779541015625 C 1.299562215805054 151.6723785400391 1.165701031684875 149.9088134765625 1.564867734909058 148.3121490478516 C 2.024895429611206 146.4720153808594 3.172451019287109 144.9220886230469 4.796145439147949 143.9478759765625 L 4.863478660583496 143.9086456298828 L 9.721830368041992 141.1626281738281 L 5.581930160522461 138.5998382568359 C 3.899333953857422 137.5829315185547 2.766180038452148 135.9888153076172 2.390145540237427 134.1086273193359 C 2.038756608963013 132.3516693115234 2.384645462036133 130.4850921630859 3.364089965820312 128.8527069091797 C 4.621201038360596 126.7575378417969 6.813145637512207 125.5066757202148 9.227534294128418 125.5066757202148 C 10.56847858428955 125.5066757202148 11.91567325592041 125.8897323608398 13.12350654602051 126.6144256591797 L 13.16209030151367 126.6379852294922 L 23.36149215698242 132.9686431884766 L 25.60858535766602 131.7327423095703 L 13.17632389068604 123.2424011230469 C 11.52935028076172 122.2239837646484 10.4203405380249 120.6467056274414 10.04911804199219 118.7907028198242 C 9.697729110717773 117.0337905883789 10.04358959197998 115.1672058105469 11.02303409576416 113.5348129272461 C 12.28017330169678 111.4395904541016 14.47211742401123 110.1887359619141 16.88647842407227 110.1887359619141 C 18.22739601135254 110.1887359619141 19.57461738586426 110.5717849731445 20.78247833251953 111.2965087890625 L 20.86761856079102 111.3475952148438 L 20.94922828674316 111.4042053222656 L 39.10922622680664 124.005012512207 L 41.28886413574219 122.6972351074219 L 37.02400588989258 120.0570755004883 C 35.34141159057617 119.0401916503906 34.2082633972168 117.4460754394531 33.83222961425781 115.5658721923828 C 33.48083877563477 113.8089294433594 33.82670211791992 111.9423675537109 34.80614471435547 110.3099822998047 C 36.06325531005859 108.2147903442383 38.25519943237305 106.9639282226562 40.66958999633789 106.9639282226562 C 42.01053619384766 106.9639282226562 43.35772705078125 107.3469848632812 44.5655632019043 108.0716781616211 L 44.66614532470703 108.1347579956055 L 54.80365753173828 114.7765884399414 L 56.54931259155273 113.7582931518555 L 56.54931259155273 89.39035797119141 L 54.80365371704102 88.37204742431641 L 44.56558990478516 95.07692718505859 C 43.35775756835938 95.80165100097656 42.01053619384766 96.18473052978516 40.66956329345703 96.18473052978516 C 38.25519943237305 96.18473052978516 36.06325531005859 94.93386840820312 34.80614471435547 92.83867645263672 C 33.82672882080078 91.20629119873047 33.48083877563477 89.33972930908203 33.83222961425781 87.58278656005859 C 34.2082633972168 85.70256042480469 35.34141540527344 84.10843658447266 37.02400970458984 83.091552734375 L 41.28884887695312 80.451416015625 L 39.10921096801758 79.14363098144531 L 20.86758995056152 91.80104064941406 L 20.78242301940918 91.85214996337891 C 19.57456207275391 92.57684326171875 18.22736740112305 92.95989990234375 16.88647842407227 92.95989990234375 C 14.47208976745605 92.95989990234375 12.2801456451416 91.70903778076172 11.02303409576416 89.61384582519531 C 10.04358959197998 87.98145294189453 9.697729110717773 86.1148681640625 10.04911804199219 84.35792541503906 C 10.4203405380249 82.50192260742188 11.52935123443604 80.92464447021484 13.17632579803467 79.90622711181641 L 25.60859107971191 71.41590118408203 L 23.40504455566406 70.20394897460938 L 13.12350654602051 76.93731689453125 C 11.91567325592041 77.66201019287109 10.56847858428955 78.04506683349609 9.227534294128418 78.04506683349609 C 6.813117504119873 78.04506683349609 4.62117338180542 76.79420471191406 3.364062070846558 74.69901275634766 C 2.384645462036133 73.066650390625 2.038756608963013 71.20006561279297 2.390145540237427 69.44312286376953 C 2.766115665435791 67.5633544921875 3.898804903030396 65.96955108642578 5.580746650695801 64.95263671875 L 9.551984786987305 62.4942512512207 L 4.872756481170654 60.05292510986328 L 4.796145439147949 60.00695419311523 C 1.292728781700134 57.90489959716797 0.1324788480997086 53.61803817749023 2.154756546020508 50.24756622314453 C 2.809839963912964 49.15576171875 3.716951131820679 48.24403762817383 4.778006553649902 47.61090087890625 C 5.874950885772705 46.95639801025391 7.114034175872803 46.61042785644531 8.361311912536621 46.61042785644531 C 9.585483551025391 46.61042785644531 10.79976749420166 46.94671249389648 11.87607955932617 47.58345413208008 L 17.19972038269043 50.59247207641602 L 17.85518074035645 45.13038635253906 C 17.91738128662109 43.39502716064453 18.74454307556152 41.71936798095703 20.14628410339355 40.50453948974609 C 21.45967292785645 39.36628723144531 23.18592262268066 38.71345520019531 24.88242340087891 38.71345520019531 C 26.71939468383789 38.71345520019531 28.41278457641602 39.44759368896484 29.65059089660645 40.78064727783203 C 30.84986686706543 42.07217788696289 31.51033973693848 43.83503723144531 31.51033973693848 45.74448394775391 L 31.51033973693848 45.83012008666992 L 30.80715751647949 58.13594818115234 L 33.14581680297852 59.42221832275391 L 34.40225601196289 43.71684265136719 L 34.43686676025391 43.54370498657227 C 34.77003479003906 41.87795639038086 35.63595199584961 40.36914825439453 36.87509155273438 39.29523086547852 C 38.22708892822266 38.12348175048828 39.93450546264648 37.504150390625 41.8127555847168 37.504150390625 L 42.10981369018555 37.504150390625 L 42.40106201171875 37.56240081787109 C 44.06684112548828 37.89553833007812 45.5756721496582 38.76142501831055 46.64961624145508 40.00059509277344 C 47.82136917114258 41.35259246826172 48.44070053100586 43.06000900268555 48.44070053100586 44.93828964233398 L 48.44070053100586 45.06517791748047 L 46.57238388061523 67.11112976074219 L 48.88256072998047 68.49723815917969 L 49.29514312744141 63.34008026123047 C 49.33736801147461 61.57989883422852 50.16784286499023 59.87531280517578 51.5883674621582 58.6441764831543 C 52.90172958374023 57.50592803955078 54.62797927856445 56.85309219360352 56.32447814941406 56.85309219360352 C 58.16144943237305 56.85309219360352 59.85483932495117 57.58723068237305 61.09264373779297 58.9202880859375 C 62.29195022583008 60.21181488037109 62.95242309570312 61.97470474243164 62.95242309570312 63.88414764404297 L 62.95242309570312 63.96978759765625 L 62.24622344970703 76.32799530029297 L 63.98344802856445 77.34137725830078 L 85.16964721679688 64.98276519775391 L 85.16964721679688 63.21368026733398 L 74.74716186523438 57.3076057434082 C 73.08982849121094 56.57484436035156 71.81801605224609 55.18682861328125 71.23881530761719 53.46748352050781 C 70.63930511474609 51.68791198730469 70.83554840087891 49.72077560424805 71.77342987060547 48.0335807800293 C 72.81216430664062 45.69157409667969 75.11554718017578 44.19181442260742 77.70839691162109 44.19181442260742 C 78.89600372314453 44.19181442260742 80.07801055908203 44.51282501220703 81.13536834716797 45.12135696411133 L 85.57275390625 47.34005355834961 L 85.57275390625 44.80793762207031 L 65.58259582519531 35.18303680419922 C 63.87810134887695 34.46665191650391 62.58139801025391 33.09626770019531 61.92422866821289 31.31250953674316 C 61.30278396606445 29.625732421875 61.33119964599609 27.77014923095703 62.00419998168945 26.08759307861328 C 63.02728271484375 23.52989959716797 65.54642486572266 21.87726020812988 68.42198181152344 21.87726020812988 C 69.35987091064453 21.87726020812988 70.2757568359375 22.05339813232422 71.14420318603516 22.40078735351562 L 71.24758911132812 22.44214820861816 L 85.16964721679688 29.24849510192871 L 85.16964721679688 26.61075782775879 L 74.21225738525391 20.9553165435791 L 74.12998199462891 20.90592765808105 C 72.50625610351562 19.93173217773438 71.35870361328125 18.38178825378418 70.89867401123047 16.54167747497559 C 70.49950408935547 14.9450101852417 70.63336944580078 13.1814546585083 71.27558898925781 11.57587146759033 C 72.263671875 9.105593681335449 74.63047790527344 7.509398937225342 77.30528259277344 7.509398937225342 C 78.49288940429688 7.509398937225342 79.67489624023438 7.830406665802002 80.73225402832031 8.43894100189209 L 85.16964721679688 10.65763473510742 L 85.16964721679688 5.0310378074646 C 85.16964721679688 0.9569823741912842 88.12661743164062 -1.999989867210388 92.20069885253906 -1.999989867210388 C 96.27475738525391 -1.999989867210388 99.23172760009766 0.9569823741912842 99.23172760009766 5.0310378074646 L 99.23172760009766 10.852707862854 L 103.6139297485352 8.860803604125977 C 104.5657806396484 8.239155769348145 105.6706695556641 7.912510395050049 106.8327255249023 7.912510395050049 C 109.1922225952148 7.912510395050049 111.4800567626953 9.254892349243164 112.8367080688477 11.42533779144287 C 113.7758102416992 12.75192356109619 114.1140747070312 14.38504981994629 113.7892532348633 16.04317665100098 C 113.401008605957 18.02509307861328 112.1188125610352 19.79751014709473 110.2713928222656 20.90592765808105 L 110.1891174316406 20.9553165435791 L 99.23172760009766 26.61075782775879 L 99.23172760009766 29.24847030639648 L 113.1538391113281 22.4421215057373 L 113.2572860717773 22.40076065063477 C 114.125732421875 22.05339813232422 115.0439224243164 21.87726020812988 115.9863662719727 21.87726020812988 C 117.2868423461914 21.87726020812988 118.5803146362305 22.21920394897461 119.7269515991211 22.86609268188477 C 120.8989791870117 23.52734375 121.8880920410156 24.49284362792969 122.5873107910156 25.65823173522949 L 122.7110061645508 25.86437034606934 L 122.8002853393555 26.08756637573242 C 123.4732818603516 27.77012062072754 123.5017013549805 29.62570381164551 122.880256652832 31.3124828338623 C 122.2230453491211 33.09635162353516 120.9263610839844 34.46677398681641 119.2217407226562 35.18312454223633 L 99.23172760009766 44.80793762207031 L 99.23172760009766 47.53514099121094 L 103.6137161254883 45.54331588745117 C 104.5656051635742 44.921630859375 105.6706390380859 44.59489822387695 106.8327026367188 44.59489822387695 C 109.1921920776367 44.59489822387695 111.4800415039062 45.93733215332031 112.8367233276367 48.10778045654297 C 113.7758483886719 49.43434143066406 114.1140747070312 51.06741333007812 113.7892532348633 52.72556686401367 C 113.4010314941406 54.70748138427734 112.1188125610352 56.47992706298828 110.2713928222656 57.58834457397461 L 110.1891174316406 57.63773345947266 L 99.23172760009766 63.29317474365234 L 99.23172760009766 64.98276519775391 L 120.4766311645508 77.3756103515625 L 122.55419921875 76.25691986083984 L 121.8670043945312 64.23120880126953 C 121.5877151489258 62.47668838500977 122.0767593383789 60.68610382080078 123.2266159057617 59.28350830078125 C 124.4342880249023 57.8104133605957 126.2318496704102 56.93650054931641 128.1934356689453 56.85879135131836 C 128.4942779541016 56.81401443481445 128.7986450195312 56.79140090942383 129.1017913818359 56.79140090942383 C 130.787841796875 56.79140090942383 132.4402313232422 57.50131607055664 133.6352844238281 58.7391471862793 C 134.7994232177734 59.94493103027344 135.460205078125 61.55020523071289 135.5082397460938 63.27814102172852 L 136.1473388671875 68.60388946533203 L 138.6352081298828 67.11116790771484 L 136.7865600585938 45.29709625244141 C 136.4885864257812 43.28532409667969 137.029052734375 41.29597091674805 138.2792816162109 39.82014846801758 C 139.4749755859375 38.40865707397461 141.2388153076172 37.57444763183594 143.1490173339844 37.50839233398438 C 143.4375915527344 37.47111129760742 143.7285003662109 37.4522590637207 144.0167846679688 37.4522590637207 C 145.8280029296875 37.4522590637207 147.5442352294922 38.17462158203125 148.8492584228516 39.48628616333008 C 150.0724487304688 40.7156982421875 150.7884826660156 42.35044479370117 150.8273162841797 43.99145126342773 L 152.0617828369141 59.4222526550293 L 154.4004669189453 58.1359748840332 L 153.7122039794922 46.09158325195312 C 153.4329071044922 44.33703231811523 153.9219512939453 42.54644012451172 155.0718078613281 41.14384460449219 C 156.2794799804688 39.67074584960938 158.0770416259766 38.79683303833008 160.0386199951172 38.71912384033203 C 160.3394775390625 38.67434692382812 160.6438446044922 38.6517333984375 160.9469757080078 38.6517333984375 C 162.6330413818359 38.6517333984375 164.2854461669922 39.36167526245117 165.4804840087891 40.59951019287109 C 166.6748809814453 41.83664703369141 167.3393859863281 43.49399948120117 167.3559112548828 45.27322387695312 L 167.5532379150391 50.20630645751953 L 172.6844482421875 47.08295440673828 L 172.9165954589844 46.99009323120117 C 173.9183654785156 46.58939743041992 174.9609222412109 46.38623428344727 176.0152587890625 46.38623428344727 C 177.2333679199219 46.38623428344727 178.4243469238281 46.67073059082031 179.4593658447266 47.20895385742188 C 180.6061248779297 47.8052864074707 181.5699462890625 48.71662139892578 182.2466430664062 49.84445571899414 L 182.3703460693359 50.05059432983398 L 182.4596252441406 50.27378845214844 C 183.1018371582031 51.87937164306641 183.2357025146484 53.64292526245117 182.8365325927734 55.23959350585938 C 182.3765106201172 57.07970428466797 181.2289581298828 58.6296501159668 179.6052551269531 59.6038703918457 L 179.5379180908203 59.64309310913086 L 174.4084014892578 62.54238128662109 L 178.4977111816406 65.40489959716797 C 180.1355743408203 66.42362976074219 181.2381896972656 67.99642181396484 181.6081695556641 69.84622955322266 C 181.9595336914062 71.60317993164062 181.6136779785156 73.46973419189453 180.6342315673828 75.10211944580078 C 179.3770904541016 77.19731903076172 177.1851501464844 78.44817352294922 174.7707824707031 78.44817352294922 C 173.4298706054688 78.44817352294922 172.0826416015625 78.06512451171875 170.8747863769531 77.34040069580078 L 170.7742004394531 77.27731323242188 L 160.5932464599609 70.6070556640625 L 158.3897247314453 71.81899261474609 L 170.8221740722656 80.30943298339844 C 172.4691162109375 81.32785034179688 173.5779724121094 82.90503692626953 173.9491729736328 84.76103973388672 C 174.3005676269531 86.51798248291016 173.9546966552734 88.38453674316406 172.9752502441406 90.01692962646484 C 171.7181243896484 92.11215209960938 169.5261688232422 93.36300659179688 167.11181640625 93.36300659179688 C 165.7708740234375 93.36300659179688 164.4236450195312 92.97992706298828 163.2158050537109 92.25520324707031 L 163.1306762695312 92.20412445068359 L 163.0490875244141 92.14753723144531 L 144.8890991210938 79.54673767089844 L 142.7094421386719 80.85453033447266 L 146.9754943847656 83.49541473388672 C 148.6574249267578 84.5123291015625 149.7901153564453 86.10613250732422 150.1660919189453 87.98590087890625 C 150.5174560546875 89.74281311035156 150.1715850830078 91.609375 149.192138671875 93.24176025390625 C 147.93505859375 95.33698272705078 145.7431182861328 96.58784484863281 143.3287353515625 96.58784484863281 C 141.9878082275391 96.58784484863281 140.6405944824219 96.20478820800781 139.4327239990234 95.48006439208984 L 139.3321380615234 95.41698455810547 L 129.1946411132812 88.77516174316406 L 127.4489822387695 89.79347229003906 L 127.4489822387695 114.0926284790039 L 129.5390625 115.2180862426758 L 139.8357543945312 108.4747848510742 C 141.0435943603516 107.7500915527344 142.3908081054688 107.3670349121094 143.7317504882812 107.3670349121094 C 146.1461181640625 107.3670349121094 148.3380584716797 108.6178741455078 149.5951995849609 110.7130661010742 C 150.5746459960938 112.3454818725586 150.9205017089844 114.2120666503906 150.5691223144531 115.9689788818359 C 150.1931457519531 117.848747253418 149.0604553222656 119.4425506591797 147.3785095214844 120.45947265625 L 143.1124725341797 123.1003494262695 L 145.2921295166016 124.4081420898438 L 163.5337219238281 111.750732421875 L 163.6188659667969 111.6996459960938 C 164.8266754150391 110.9749298095703 166.1738891601562 110.5918731689453 167.5148620605469 110.5918731689453 C 169.9292907714844 110.5918731689453 172.1212310791016 111.8427352905273 173.3783416748047 113.9379272460938 C 174.3577575683594 115.5703125 174.70361328125 117.4368743896484 174.3522491455078 119.1937866210938 C 173.9810333251953 121.0498199462891 172.8720245361328 122.6270980834961 171.2250518798828 123.6455154418945 L 158.7927856445312 132.1358489990234 L 160.996337890625 133.3478088378906 L 171.2778625488281 126.6144561767578 C 172.4856719970703 125.8897323608398 173.8329010009766 125.5066757202148 175.1738739013672 125.5066757202148 C 177.5882873535156 125.5066757202148 179.7802276611328 126.7575378417969 181.0373382568359 128.8527374267578 C 182.0167541503906 130.4851226806641 182.3626251220703 132.3516693115234 182.01123046875 134.1086273193359 C 181.6351928710938 135.9888458251953 180.5020446777344 137.5829772949219 178.8194427490234 138.599853515625 L 174.6795654296875 141.1626434326172 L 179.605224609375 143.9478759765625 C 181.4057769775391 145.0281982421875 182.5765838623047 146.7701416015625 182.8174743652344 148.7270050048828 C 183.0343017578125 150.4884033203125 182.4647827148438 152.2467803955078 181.2490539550781 153.6072540283203 C 180.6134796142578 154.5647888183594 179.7786102294922 155.3670806884766 178.8174285888672 155.940673828125 C 177.7204437255859 156.5952911376953 176.4813690185547 156.9413146972656 175.2341461181641 156.9413146972656 C 174.0092926025391 156.9411468505859 172.7951202392578 156.6048736572266 171.7190704345703 155.9682922363281 L 166.7543640136719 153.1621398925781 L 166.5496063232422 158.2812652587891 C 166.528076171875 160.0662536621094 165.6945190429688 161.7997436523438 164.2551116943359 163.0472106933594 C 162.9417572021484 164.1854553222656 161.2154846191406 164.8382873535156 159.5189819335938 164.8382873535156 C 157.6820068359375 164.8382873535156 155.9886474609375 164.1041564941406 154.7508087158203 162.7711181640625 C 153.551513671875 161.4795684814453 152.8910369873047 159.7167053222656 152.8910369873047 157.8072662353516 L 152.8910369873047 157.7216186523438 L 153.59423828125 145.415771484375 L 151.2555541992188 144.1295013427734 L 149.9991149902344 159.8348999023438 L 149.9645080566406 160.0080108642578 C 149.6313629150391 161.6737670898438 148.7654724121094 163.1825866699219 147.5263061523438 164.2565155029297 C 146.17431640625 165.4282531738281 144.4668884277344 166.0476226806641 142.588623046875 166.0476226806641 L 142.2915649414062 166.0476226806641 L 142.0002593994141 165.9893646240234 C 140.3345031738281 165.6562042236328 138.8256988525391 164.790283203125 137.7517852783203 163.5511474609375 C 136.5800323486328 162.1991424560547 135.9607086181641 160.4917297363281 135.9607086181641 158.6134796142578 L 135.9607086181641 158.4865875244141 L 137.8289947509766 136.4406127929688 L 135.7095336914062 135.1689300537109 L 135.5022277832031 140.30078125 C 135.3500366210938 142.2791442871094 134.4661102294922 144.0215911865234 133.0132904052734 145.2071838378906 C 131.7504577636719 146.2377014160156 130.11572265625 146.8052368164062 128.4102325439453 146.8052368164062 C 126.3762283325195 146.8052368164062 124.4647827148438 146.0008392333984 123.1660308837891 144.5983428955078 C 121.9194717407227 143.2522277832031 121.3125991821289 141.4321594238281 121.4553756713867 139.4701232910156 L 122.1551818847656 127.223747253418 L 120.4179534912109 126.2103652954102 L 99.23172760009766 138.5690002441406 L 99.23172760009766 140.3098907470703 L 110.0354385375977 146.2344818115234 C 111.7036056518555 146.9646453857422 112.9839401245117 148.3572998046875 113.5657043457031 150.0842895507812 C 114.1651840209961 151.8638610839844 113.9689712524414 153.8308868408203 113.0311050415039 155.51806640625 C 111.9923477172852 157.8600616455078 109.6889419555664 159.3599243164062 107.0960922241211 159.3599243164062 C 105.9084854125977 159.3599243164062 104.7264785766602 159.0389251708984 103.6691207885742 158.4303894042969 L 99.23172760009766 156.2116851806641 L 99.23172760009766 158.7591400146484 L 118.8305130004883 168.3736572265625 C 120.5293273925781 169.0913543701172 121.8214492797852 170.4595031738281 122.4771423339844 172.2392272949219 C 123.0986175537109 173.9260406494141 123.070198059082 175.7816467285156 122.3971481323242 177.4642333984375 C 121.3740615844727 180.0218658447266 118.8549499511719 181.6744842529297 115.9794235229492 181.6744842529297 C 115.0415344238281 181.6744842529297 114.1256484985352 181.4983367919922 113.2572021484375 181.1509552001953 L 113.15380859375 181.1095886230469 L 113.0537567138672 181.0606994628906 L 99.23172760009766 174.3032684326172 L 99.23172760009766 177.1123962402344 L 108.5185012817383 182.9596405029297 C 110.139892578125 183.7006072998047 111.3826675415039 185.0728912353516 111.9532852172852 186.7667083740234 C 112.5529556274414 188.5468444824219 112.3562927246094 190.5148010253906 111.4176635742188 192.2023315429688 C 110.8921508789062 193.3810577392578 110.0297088623047 194.3382873535156 108.9112854003906 194.9806213378906 C 107.905647277832 195.5581817626953 106.7119750976562 195.8634490966797 105.459342956543 195.8634490966797 C 104.428092956543 195.8634490966797 103.3609771728516 195.6546173095703 102.3733673095703 195.2595672607422 L 102.2575378417969 195.2132263183594 L 97.61930847167969 192.8941192626953 L 97.61930847167969 198.5207061767578 C 97.61930847167969 202.5947570800781 94.66233825683594 205.5517272949219 90.58828735351562 205.5517272949219 Z M 71.01448059082031 114.161376953125 L 92.20069885253906 126.5200119018555 L 113.3868942260742 114.161376953125 L 113.3868942260742 89.79347991943359 L 92.20069885253906 77.43483734130859 L 71.01448059082031 89.79347991943359 L 71.01448059082031 114.161376953125 Z" stroke="none" fill="#fff"/>
      </g>
    </g>
  </g>
</svg>
